<svg xmlns="http://www.w3.org/2000/svg" version="1.1" xmlns:xlink="http://www.w3.org/1999/xlink" xmlns:svgjs="http://svgjs.dev/svgjs" viewBox="0 0 800 800"><defs><linearGradient x1="50%" y1="0%" x2="50%" y2="100%" id="ffflurry-grad" gradientTransform="rotate(270)"><stop stop-color="hsl(238, 82%, 13%)" stop-opacity="1" offset="0%"></stop><stop stop-color="hsl(1.4, 100%, 67%)" stop-opacity="1" offset="45%"></stop><stop stop-color="hsl(167, 52%, 78%)" stop-opacity="1" offset="100%"></stop></linearGradient></defs><rect width="100%" height="100%" fill="hsl(238, 82%, 13%)"></rect><g fill="url(#ffflurry-grad)"><rect width="603" height="3" x="-158.5" y="262.5" rx="1.5" transform="rotate(45, 143, 264)" opacity="0.57"></rect><rect width="358" height="3" x="548" y="119.5" rx="1.5" transform="rotate(45, 727, 121)" opacity="0.31"></rect><rect width="286" height="3" x="550" y="21.5" rx="1.5" transform="rotate(45, 693, 23)" opacity="0.51"></rect><rect width="92" height="3" x="150" y="324.5" rx="1.5" transform="rotate(45, 196, 326)" opacity="0.12"></rect><rect width="372" height="3" x="-161" y="536.5" rx="1.5" transform="rotate(45, 25, 538)" opacity="0.88"></rect><rect width="76" height="3" x="743" y="121.5" rx="1.5" transform="rotate(45, 781, 123)" opacity="0.84"></rect><rect width="559" height="3" x="375.5" y="672.5" rx="1.5" transform="rotate(45, 655, 674)" opacity="0.13"></rect><rect width="551" height="3" x="-236.5" y="79.5" rx="1.5" transform="rotate(45, 39, 81)" opacity="0.82"></rect><rect width="461" height="3" x="46.5" y="372.5" rx="1.5" transform="rotate(45, 277, 374)" opacity="0.83"></rect><rect width="439" height="3" x="331.5" y="377.5" rx="1.5" transform="rotate(45, 551, 379)" opacity="0.09"></rect><rect width="231" height="3" x="654.5" y="163.5" rx="1.5" transform="rotate(45, 770, 165)" opacity="0.24"></rect><rect width="256" height="3" x="166" y="151.5" rx="1.5" transform="rotate(45, 294, 153)" opacity="0.13"></rect><rect width="612" height="3" x="447" y="408.5" rx="1.5" transform="rotate(45, 753, 410)" opacity="0.85"></rect><rect width="99" height="3" x="335.5" y="665.5" rx="1.5" transform="rotate(45, 385, 667)" opacity="0.57"></rect><rect width="354" height="3" x="331" y="157.5" rx="1.5" transform="rotate(45, 508, 159)" opacity="0.66"></rect><rect width="148" height="3" x="61" y="58.5" rx="1.5" transform="rotate(45, 135, 60)" opacity="0.33"></rect><rect width="476" height="3" x="415" y="168.5" rx="1.5" transform="rotate(45, 653, 170)" opacity="0.47"></rect><rect width="336" height="3" x="-38" y="547.5" rx="1.5" transform="rotate(45, 130, 549)" opacity="0.09"></rect><rect width="555" height="3" x="306.5" y="43.5" rx="1.5" transform="rotate(45, 584, 45)" opacity="0.30"></rect><rect width="521" height="3" x="136.5" y="131.5" rx="1.5" transform="rotate(45, 397, 133)" opacity="0.41"></rect><rect width="164" height="3" x="196" y="242.5" rx="1.5" transform="rotate(45, 278, 244)" opacity="0.28"></rect><rect width="159" height="3" x="-46.5" y="402.5" rx="1.5" transform="rotate(45, 33, 404)" opacity="0.97"></rect><rect width="733" height="3" x="-63.5" y="724.5" rx="1.5" transform="rotate(45, 303, 726)" opacity="0.10"></rect><rect width="486" height="3" x="416" y="471.5" rx="1.5" transform="rotate(45, 659, 473)" opacity="0.95"></rect><rect width="182" height="3" x="208" y="477.5" rx="1.5" transform="rotate(45, 299, 479)" opacity="0.15"></rect><rect width="564" height="3" x="-70" y="448.5" rx="1.5" transform="rotate(45, 212, 450)" opacity="0.33"></rect><rect width="347" height="3" x="391.5" y="460.5" rx="1.5" transform="rotate(45, 565, 462)" opacity="0.12"></rect><rect width="163" height="3" x="617.5" y="523.5" rx="1.5" transform="rotate(45, 699, 525)" opacity="0.20"></rect><rect width="380" height="3" x="467" y="82.5" rx="1.5" transform="rotate(45, 657, 84)" opacity="0.42"></rect><rect width="319" height="3" x="-10.5" y="403.5" rx="1.5" transform="rotate(45, 149, 405)" opacity="0.89"></rect><rect width="567" height="3" x="-92.5" y="148.5" rx="1.5" transform="rotate(45, 191, 150)" opacity="0.32"></rect><rect width="64" height="3" x="471" y="300.5" rx="1.5" transform="rotate(45, 503, 302)" opacity="0.22"></rect><rect width="686" height="3" x="86" y="225.5" rx="1.5" transform="rotate(45, 429, 227)" opacity="0.98"></rect><rect width="302" height="3" x="-121" y="462.5" rx="1.5" transform="rotate(45, 30, 464)" opacity="0.72"></rect><rect width="170" height="3" x="474" y="704.5" rx="1.5" transform="rotate(45, 559, 706)" opacity="0.85"></rect><rect width="225" height="3" x="667.5" y="76.5" rx="1.5" transform="rotate(45, 780, 78)" opacity="0.13"></rect><rect width="202" height="3" x="624" y="263.5" rx="1.5" transform="rotate(45, 725, 265)" opacity="0.91"></rect><rect width="483" height="3" x="-192.5" y="613.5" rx="1.5" transform="rotate(45, 49, 615)" opacity="0.25"></rect><rect width="335" height="3" x="206.5" y="311.5" rx="1.5" transform="rotate(45, 374, 313)" opacity="0.65"></rect><rect width="266" height="3" x="587" y="644.5" rx="1.5" transform="rotate(45, 720, 646)" opacity="0.49"></rect><rect width="77" height="3" x="403.5" y="591.5" rx="1.5" transform="rotate(45, 442, 593)" opacity="0.54"></rect><rect width="196" height="3" x="618" y="329.5" rx="1.5" transform="rotate(45, 716, 331)" opacity="0.92"></rect><rect width="417" height="3" x="-134.5" y="354.5" rx="1.5" transform="rotate(45, 74, 356)" opacity="0.10"></rect><rect width="256" height="3" x="642" y="23.5" rx="1.5" transform="rotate(45, 770, 25)" opacity="0.60"></rect><rect width="522" height="3" x="-222" y="295.5" rx="1.5" transform="rotate(45, 39, 297)" opacity="0.70"></rect><rect width="57" height="3" x="576.5" y="577.5" rx="1.5" transform="rotate(45, 605, 579)" opacity="0.51"></rect><rect width="395" height="3" x="-65.5" y="639.5" rx="1.5" transform="rotate(45, 132, 641)" opacity="0.15"></rect><rect width="174" height="3" x="573" y="243.5" rx="1.5" transform="rotate(45, 660, 245)" opacity="0.43"></rect><rect width="152" height="3" x="702" y="651.5" rx="1.5" transform="rotate(45, 778, 653)" opacity="0.35"></rect><rect width="168" height="3" x="188" y="51.5" rx="1.5" transform="rotate(45, 272, 53)" opacity="0.69"></rect><rect width="129" height="3" x="15.5" y="509.5" rx="1.5" transform="rotate(45, 80, 511)" opacity="0.98"></rect><rect width="413" height="3" x="-148.5" y="734.5" rx="1.5" transform="rotate(45, 58, 736)" opacity="0.60"></rect><rect width="188" height="3" x="97" y="767.5" rx="1.5" transform="rotate(45, 191, 769)" opacity="0.38"></rect><rect width="340" height="3" x="207" y="36.5" rx="1.5" transform="rotate(45, 377, 38)" opacity="0.61"></rect><rect width="638" height="3" x="-255" y="200.5" rx="1.5" transform="rotate(45, 64, 202)" opacity="0.67"></rect><rect width="48" height="3" x="180" y="541.5" rx="1.5" transform="rotate(45, 204, 543)" opacity="0.64"></rect><rect width="484" height="3" x="172" y="425.5" rx="1.5" transform="rotate(45, 414, 427)" opacity="0.55"></rect><rect width="141" height="3" x="174.5" y="610.5" rx="1.5" transform="rotate(45, 245, 612)" opacity="0.44"></rect><rect width="122" height="3" x="86" y="480.5" rx="1.5" transform="rotate(45, 147, 482)" opacity="0.46"></rect><rect width="492" height="3" x="352" y="274.5" rx="1.5" transform="rotate(45, 598, 276)" opacity="0.84"></rect><rect width="86" height="3" x="387" y="759.5" rx="1.5" transform="rotate(45, 430, 761)" opacity="0.79"></rect><rect width="494" height="3" x="377" y="763.5" rx="1.5" transform="rotate(45, 624, 765)" opacity="0.98"></rect><rect width="115" height="3" x="435.5" y="519.5" rx="1.5" transform="rotate(45, 493, 521)" opacity="0.55"></rect><rect width="589" height="3" x="191.5" y="50.5" rx="1.5" transform="rotate(45, 486, 52)" opacity="0.91"></rect><rect width="73" height="3" x="703.5" y="577.5" rx="1.5" transform="rotate(45, 740, 579)" opacity="0.32"></rect><rect width="71" height="3" x="736.5" y="218.5" rx="1.5" transform="rotate(45, 772, 220)" opacity="0.12"></rect><rect width="305" height="3" x="432.5" y="154.5" rx="1.5" transform="rotate(45, 585, 156)" opacity="0.11"></rect><rect width="102" height="3" x="43" y="429.5" rx="1.5" transform="rotate(45, 94, 431)" opacity="0.11"></rect><rect width="420" height="3" x="134" y="563.5" rx="1.5" transform="rotate(45, 344, 565)" opacity="0.50"></rect><rect width="156" height="3" x="652" y="68.5" rx="1.5" transform="rotate(45, 730, 70)" opacity="0.68"></rect><rect width="152" height="3" x="703" y="297.5" rx="1.5" transform="rotate(45, 779, 299)" opacity="0.22"></rect><rect width="282" height="3" x="629" y="499.5" rx="1.5" transform="rotate(45, 770, 501)" opacity="0.59"></rect><rect width="407" height="3" x="543.5" y="747.5" rx="1.5" transform="rotate(45, 747, 749)" opacity="0.11"></rect><rect width="79" height="3" x="612.5" y="378.5" rx="1.5" transform="rotate(45, 652, 380)" opacity="0.85"></rect><rect width="438" height="3" x="-27" y="695.5" rx="1.5" transform="rotate(45, 192, 697)" opacity="0.64"></rect><rect width="394" height="3" x="518" y="186.5" rx="1.5" transform="rotate(45, 715, 188)" opacity="0.16"></rect><rect width="361" height="3" x="318.5" y="665.5" rx="1.5" transform="rotate(45, 499, 667)" opacity="0.23"></rect></g></svg>